<?xml version="1.0" encoding="UTF-8"?>
<svg version="1.1" xmlns="http://www.w3.org/2000/svg" width="498" height="501">
<path d="M0 0 C6.03458133 6.51138775 7.94820677 13.44835578 7.671875 22.2578125 C6.25312191 31.83141525 -0.02579037 39.37634659 -5.90234375 46.734375 C-9.23232657 50.91074774 -12.38595494 55.21172793 -15.54296875 59.51953125 C-16.12876709 60.31721924 -16.71456543 61.11490723 -17.31811523 61.93676758 C-18.52546712 63.58092231 -19.73241179 65.22537615 -20.93896484 66.87011719 C-22.83076297 69.44599191 -24.72711388 72.01845187 -26.625 74.58984375 C-27.24987305 75.43659668 -27.87474609 76.28334961 -28.51855469 77.15576172 C-29.70774737 78.76695659 -30.89718454 80.37797104 -32.08691406 81.98876953 C-35.36215343 86.42985433 -38.59740359 90.89574677 -41.79296875 95.39453125 C-40.38660554 98.72774771 -38.81917485 100.43704406 -35.94140625 102.6015625 C-35.17183594 103.18873047 -34.40226562 103.77589844 -33.609375 104.38085938 C-32.80371094 104.98349609 -31.99804688 105.58613281 -31.16796875 106.20703125 C-13.47696698 119.57000375 0.21756982 132.84248919 3.69140625 155.5625 C4.92481532 169.58345901 2.94255761 183.32753721 -6.11328125 194.5234375 C-15.31142159 204.76973802 -26.8540181 210.73808869 -40.578125 211.64453125 C-51.28036924 212.04799854 -61.26155053 210.43620135 -71.73046875 208.3515625 C-77.40435081 207.23388372 -83.01144444 206.63847742 -88.79296875 206.39453125 C-90.70116625 210.99665464 -91.34844106 214.64946683 -89.79296875 219.39453125 C-88.26689264 222.45905705 -86.66870232 225.45574496 -84.97265625 228.4296875 C-83.57556177 231.94092826 -83.8024283 233.79163282 -84.79296875 237.39453125 C-86.48145475 239.97169409 -87.514544 240.33155894 -90.5390625 241.015625 C-98.54173628 241.94750898 -106.48051374 239.48826222 -113.79296875 236.39453125 C-112.95968852 242.79763194 -111.94924319 249.04925365 -110.21972656 255.27075195 C-106.82116931 267.58225116 -105.75232048 279.68959909 -111.79296875 291.39453125 C-116.97062915 300.4278962 -125.02637437 305.35247726 -134.79296875 308.39453125 C-163.12331384 315.47711752 -203.90674181 302.58206387 -228.203125 288.3359375 C-231.26453891 286.47231189 -234.25910088 284.52665546 -237.24609375 282.546875 C-240.06822637 280.72931191 -242.37802437 279.6402107 -245.79296875 279.39453125 C-246.61796875 279.58015625 -247.44296875 279.76578125 -248.29296875 279.95703125 C-251.51910789 280.5216056 -252.97080273 280.02841684 -255.79296875 278.39453125 C-258.44083817 274.62456729 -259.68133921 270.85155968 -260.98046875 266.45703125 C-264.36604413 255.7223447 -269.85249078 246.46528097 -276.9375 237.7265625 C-294.91408162 215.13283781 -300.3516449 189.86453156 -297.33203125 161.33203125 C-292.79672548 126.4883965 -274.99783744 93.45168405 -250.79296875 68.39453125 C-249.91898438 67.45738281 -249.045 66.52023438 -248.14453125 65.5546875 C-229.62554964 46.193934 -205.61170057 34.80377393 -179.91015625 28.375 C-178.83290283 28.10139648 -178.83290283 28.10139648 -177.73388672 27.82226562 C-175.79296875 27.39453125 -175.79296875 27.39453125 -172.91796875 27.1875 C-170.44072877 26.53349481 -170.44072877 26.53349481 -169.23828125 23.40234375 C-168.78230586 22.1135788 -168.34311545 20.81879218 -167.91796875 19.51953125 C-161.33362613 1.3979644 -161.33362613 1.3979644 -152.79296875 -2.60546875 C-147.62948231 -3.43974385 -143.1609497 -3.3023647 -138.48046875 -0.91796875 C-137.59359375 -0.15484375 -136.70671875 0.60828125 -135.79296875 1.39453125 C-134.76171875 2.19890625 -133.73046875 3.00328125 -132.66796875 3.83203125 C-129.79296875 6.39453125 -129.79296875 6.39453125 -127.85546875 9.26953125 C-127.17484375 9.97078125 -126.49421875 10.67203125 -125.79296875 11.39453125 C-122.08361386 11.32454342 -119.09793314 10.49272756 -115.578125 9.359375 C-103.79509573 6.35585774 -91.77625656 7.77977137 -81.265625 13.85546875 C-77.378289 16.33781945 -73.86600479 18.92066442 -70.79296875 22.39453125 C-68.09166652 21.10496113 -65.65204221 19.69100238 -63.2109375 17.9609375 C-62.53345459 17.48205078 -61.85597168 17.00316406 -61.15795898 16.50976562 C-60.08010132 15.74116211 -60.08010132 15.74116211 -58.98046875 14.95703125 C-58.23289307 14.42787109 -57.48531738 13.89871094 -56.71508789 13.35351562 C-52.98779971 10.7062872 -49.28521142 8.03093792 -45.62109375 5.296875 C-44.96471924 4.80823975 -44.30834473 4.31960449 -43.63208008 3.81616211 C-42.40615332 2.89966814 -41.18429392 1.9776957 -39.9675293 1.04907227 C-27.31254067 -8.42183954 -12.64318923 -11.32102565 0 0 Z M-43.3984375 40.8515625 C-44.49309326 41.64784058 -44.49309326 41.64784058 -45.60986328 42.46020508 C-46.39216309 43.03665771 -47.17446289 43.61311035 -47.98046875 44.20703125 C-49.17712158 45.08041138 -49.17712158 45.08041138 -50.39794922 45.97143555 C-52.86631253 47.77459918 -55.32985105 49.58421107 -57.79296875 51.39453125 C-59.30182378 52.49905258 -60.81092609 53.6032362 -62.3203125 54.70703125 C-65.81502784 57.26434825 -69.30528344 59.82763601 -72.79296875 62.39453125 C-72.1756876 65.77814644 -70.92317157 67.91455686 -68.85546875 70.64453125 C-68.06849609 71.70414063 -68.06849609 71.70414063 -67.265625 72.78515625 C-66.77964844 73.31625 -66.29367187 73.84734375 -65.79296875 74.39453125 C-65.13296875 74.39453125 -64.47296875 74.39453125 -63.79296875 74.39453125 C-62.32919108 72.78470259 -62.32919108 72.78470259 -60.8515625 70.66015625 C-60.27188721 69.86367676 -59.69221191 69.06719727 -59.0949707 68.24658203 C-58.47968506 67.38790527 -57.86439941 66.52922852 -57.23046875 65.64453125 C-55.96271419 63.89679105 -54.69448492 62.1493951 -53.42578125 60.40234375 C-52.80606445 59.54543945 -52.18634766 58.68853516 -51.54785156 57.80566406 C-48.6119755 53.77189779 -45.5872461 49.80729275 -42.5625 45.83984375 C-40.8190585 43.43058464 -39.28216734 40.9672025 -37.79296875 38.39453125 C-40.42406067 38.39453125 -41.2839777 39.3032365 -43.3984375 40.8515625 Z M-143.79296875 40.39453125 C-148.77675618 50.36210612 -144.64900916 67.50443884 -141.765625 77.765625 C-136.65351353 96.83852281 -139.57180304 118.10232334 -148.79296875 135.39453125 C-155.23536084 145.65463717 -164.38534083 156.56822713 -175.79296875 161.39453125 C-181.87625179 162.1042476 -181.87625179 162.1042476 -184.73046875 159.89453125 C-185.08109375 159.39953125 -185.43171875 158.90453125 -185.79296875 158.39453125 C-188.9935638 159.08437582 -188.9935638 159.08437582 -190.1796875 161.9140625 C-193.35515035 169.95284683 -196.19696337 178.209805 -192.90625 186.67578125 C-188.6940007 193.95275679 -182.17960214 199.35182626 -175.39453125 204.1328125 C-173.79296875 205.39453125 -173.79296875 205.39453125 -172.79296875 207.39453125 C-172.49033717 214.35505757 -172.49033717 214.35505757 -173.79296875 217.39453125 C-175.10021443 218.11100244 -176.44233778 218.76364441 -177.79296875 219.39453125 C-179.36304688 220.214375 -179.36304688 220.214375 -180.96484375 221.05078125 C-195.00023538 228.33484788 -207.08370024 229.94805344 -222.79296875 227.39453125 C-222.8180249 227.96373291 -222.84308105 228.53293457 -222.86889648 229.11938477 C-222.98590769 231.73210438 -223.10815155 234.34455487 -223.23046875 236.95703125 C-223.26978516 237.85228516 -223.30910156 238.74753906 -223.34960938 239.66992188 C-223.58629658 244.64035315 -223.99118547 249.48276644 -224.79296875 254.39453125 C-202.95939607 271.18958716 -170.52649829 281.97134738 -142.79296875 279.39453125 C-139.60362471 278.16648057 -139.60362471 278.16648057 -137.79296875 275.39453125 C-137.26341899 268.85459168 -138.95315862 263.01602731 -140.54296875 256.70703125 C-146.81559014 230.62260511 -153.81629371 200.50256316 -140.79296875 175.39453125 C-140.46296875 174.73453125 -140.13296875 174.07453125 -139.79296875 173.39453125 C-133.85390112 173.03818719 -130.08158623 173.38963495 -124.79296875 176.39453125 C-120.01866004 177.76936157 -115.19543908 177.46785527 -110.27734375 177.38671875 C-108.365891 177.36917241 -106.45443228 177.35226711 -104.54296875 177.3359375 C-101.56167571 177.30528778 -98.58069201 177.27012576 -95.59960938 177.22314453 C-82.94423897 177.03454306 -71.16560464 177.67283505 -58.79296875 180.39453125 C-54.58466768 181.29237215 -50.6720423 181.59236722 -46.35546875 181.64453125 C-45.07800781 181.6703125 -43.80054688 181.69609375 -42.484375 181.72265625 C-36.03898473 181.14973267 -31.89476364 178.29389736 -27.79296875 173.39453125 C-25.572743 168.63690465 -25.46053008 164.54733056 -25.79296875 159.39453125 C-26.74669013 157.20442318 -26.74669013 157.20442318 -27.79296875 155.39453125 C-28.29957031 156.24337891 -28.29957031 156.24337891 -28.81640625 157.109375 C-29.26242187 157.84285156 -29.7084375 158.57632813 -30.16796875 159.33203125 C-30.82925781 160.42837891 -30.82925781 160.42837891 -31.50390625 161.546875 C-32.79296875 163.39453125 -32.79296875 163.39453125 -34.79296875 164.39453125 C-39.73723966 165.00709579 -43.53263536 165.29868347 -47.66796875 162.33203125 C-48.36921875 161.36265625 -49.07046875 160.39328125 -49.79296875 159.39453125 C-50.19515625 158.87503906 -50.59734375 158.35554688 -51.01171875 157.8203125 C-53.85545932 153.69881012 -54.3116338 150.3322164 -53.45703125 145.4140625 C-52.36002698 142.07787892 -50.88278187 140.97230816 -47.79296875 139.39453125 C-45.08899999 138.8136787 -42.56800171 138.58266908 -39.79296875 138.39453125 C-43.27880922 134.76049424 -46.93436078 131.64691147 -50.98046875 128.64453125 C-56.05237184 124.81416904 -60.84392499 120.79292112 -65.51953125 116.48046875 C-67.63191115 114.54230575 -69.79294947 112.68429854 -71.98046875 110.83203125 C-75.34074481 107.91034544 -78.21754632 104.74004763 -81.08984375 101.34375 C-82.68386564 99.51939926 -84.34702657 97.87097771 -86.10546875 96.20703125 C-89.35640264 93.02199467 -92.10810441 89.5119028 -94.85546875 85.89453125 C-95.50672729 85.03927856 -95.50672729 85.03927856 -96.17114258 84.16674805 C-97.92269612 81.86280969 -99.67086241 79.55635894 -101.4140625 77.24609375 C-107.86219109 69.17223302 -116.90003752 63.3231114 -127.25 62.10546875 C-128.78010239 61.97198647 -130.31316127 61.86678103 -131.84765625 61.80078125 C-134.51588334 61.24356113 -135.20090486 60.63406401 -136.79296875 58.39453125 C-137.74455221 55.70355487 -138.58713511 53.07330995 -139.35546875 50.33203125 C-140.69639064 44.90314836 -140.69639064 44.90314836 -143.79296875 40.39453125 Z " fill="#FBFAFB" transform="translate(396.79296875,102.60546875)"/>
<path d="M0 0 C6.43825331 5.76497191 9.06146961 12.2102153 9.5625 20.75 C9.21560422 31.8090376 2.5428814 40.01055813 -4.109375 48.33984375 C-7.43935782 52.51621649 -10.59298619 56.81719668 -13.75 61.125 C-14.33579834 61.92268799 -14.92159668 62.72037598 -15.52514648 63.54223633 C-16.73249837 65.18639106 -17.93944304 66.8308449 -19.14599609 68.47558594 C-21.03779422 71.05146066 -22.93414513 73.62392062 -24.83203125 76.1953125 C-25.4569043 77.04206543 -26.08177734 77.88881836 -26.72558594 78.76123047 C-27.91477862 80.37242534 -29.10421579 81.98343979 -30.29394531 83.59423828 C-33.56918468 88.03532308 -36.80443484 92.50121552 -40 97 C-38.59363679 100.33321646 -37.0262061 102.04251281 -34.1484375 104.20703125 C-33.37886719 104.79419922 -32.60929687 105.38136719 -31.81640625 105.98632812 C-31.01074219 106.58896484 -30.20507812 107.19160156 -29.375 107.8125 C-11.68399823 121.1754725 2.01053857 134.44795794 5.484375 157.16796875 C6.71778407 171.18892776 4.73552636 184.93300596 -4.3203125 196.12890625 C-13.51845284 206.37520677 -25.06104935 212.34355744 -38.78515625 213.25 C-49.48740049 213.65346729 -59.46858178 212.0416701 -69.9375 209.95703125 C-75.61138206 208.83935247 -81.21847569 208.24394617 -87 208 C-88.9081975 212.60212339 -89.55547231 216.25493558 -88 221 C-86.47392389 224.0645258 -84.87573357 227.06121371 -83.1796875 230.03515625 C-81.78259302 233.54639701 -82.00945955 235.39710157 -83 239 C-84.688486 241.57716284 -85.72157525 241.93702769 -88.74609375 242.62109375 C-96.74876753 243.55297773 -104.68754499 241.09373097 -112 238 C-111.16671977 244.40310069 -110.15627444 250.6547224 -108.42675781 256.8762207 C-105.02820056 269.18771991 -103.95935173 281.29506784 -110 293 C-115.1776604 302.03336495 -123.23340562 306.95794601 -133 310 C-161.33034509 317.08258627 -202.11377306 304.18753262 -226.41015625 289.94140625 C-229.47157016 288.07778064 -232.46613213 286.13212421 -235.453125 284.15234375 C-238.27525762 282.33478066 -240.58505562 281.24567945 -244 281 C-244.825 281.185625 -245.65 281.37125 -246.5 281.5625 C-249.72613914 282.12707435 -251.17783398 281.63388559 -254 280 C-256.64786942 276.23003604 -257.88837046 272.45702843 -259.1875 268.0625 C-262.57307538 257.32781345 -268.05952203 248.07074972 -275.14453125 239.33203125 C-289.53569361 221.24461246 -296.24960386 202.24898624 -296.0625 179.0625 C-296.05798828 177.99708984 -296.05347656 176.93167969 -296.04882812 175.83398438 C-296.03711787 173.22259709 -296.02071724 170.61132876 -296 168 C-295.67 168 -295.34 168 -295 168 C-294.97421875 169.07894531 -294.9484375 170.15789062 -294.921875 171.26953125 C-294.10366568 195.61263127 -288.89714711 215.38862339 -272.31835938 233.52783203 C-262.65561798 244.31789325 -257.78492006 259.27084899 -254 273 C-249.52116304 272.55296014 -249.52116304 272.55296014 -246 270 C-242.60814107 270.3363827 -240.77494058 271.81845134 -238.25 274 C-214.15575707 293.18106125 -181.03340321 301.34208326 -150.75 301.375 C-149.54859375 301.39949219 -148.3471875 301.42398437 -147.109375 301.44921875 C-137.36905136 301.48125929 -129.8742202 299.48911651 -122.5703125 292.84765625 C-115.66424848 284.7218645 -114.33213803 275.38607344 -114.80322266 265.10351562 C-115.35289309 259.22763412 -117.25351672 253.60914339 -119 248 C-120.35895092 243.4884828 -121.41860872 239.09631865 -122.125 234.4375 C-122.29257812 233.36371094 -122.46015625 232.28992188 -122.6328125 231.18359375 C-122.98969774 228.08932275 -123.06550443 225.11146041 -123 222 C-122.48050781 222.39832031 -121.96101562 222.79664063 -121.42578125 223.20703125 C-111.32178714 230.88307853 -103.76218374 233.47958102 -91 233 C-91.57822371 229.28754093 -92.60863256 226.55091692 -94.5 223.3125 C-94.9434375 222.54550781 -95.386875 221.77851563 -95.84375 220.98828125 C-96.41609375 220.00408203 -96.41609375 220.00408203 -97 219 C-99.12978127 214.74043745 -98.65067627 210.07873947 -97.2578125 205.62890625 C-95.7746715 202.90981441 -94.64965211 201.63820253 -92 200 C-82.34118325 198.26800096 -73.19257467 200.2416347 -63.81030273 202.55541992 C-48.07524428 206.27066563 -33.05381161 204.6310293 -19 196.3125 C-11.74318089 190.99996073 -6.73492097 182.53649803 -4.4453125 173.91015625 C-3.79927549 169.68824772 -3.77523912 165.51541095 -3.75 161.25 C-3.729375 160.3940625 -3.70875 159.538125 -3.6875 158.65625 C-3.63351834 149.74927575 -6.46943773 142.63181344 -10.375 134.75 C-10.93960937 133.58984375 -11.50421875 132.4296875 -12.0859375 131.234375 C-14.0542885 127.90826352 -16.17208552 125.61214828 -19 123 C-19.70125 122.236875 -20.4025 121.47375 -21.125 120.6875 C-24.43233442 117.5958613 -27.98073662 115.09248898 -31.6640625 112.46875 C-38.33662418 107.61597787 -44.63486267 102.24484434 -51 97 C-50.1182867 92.73062113 -47.90741921 89.85384224 -45.3125 86.4375 C-44.30322046 85.08606067 -43.29411401 83.73449207 -42.28515625 82.3828125 C-41.74906738 81.66899414 -41.21297852 80.95517578 -40.66064453 80.21972656 C-38.41495486 77.21799024 -36.19902235 74.19482959 -33.98168945 71.17211914 C-28.40951972 63.57941923 -22.78265645 56.02916026 -17.125 48.5 C-15.87356249 46.83083069 -14.62225529 45.16156368 -13.37109375 43.4921875 C-11.37157101 40.82430216 -9.36491157 38.1623031 -7.34765625 35.5078125 C-6.63480469 34.55648437 -5.92195313 33.60515625 -5.1875 32.625 C-4.60355469 31.85414063 -4.01960938 31.08328125 -3.41796875 30.2890625 C0.15228375 24.52551438 0.81791075 18.61485316 0 12 C-2.03304002 5.35796585 -5.92841125 1.43599327 -11.828125 -2.09375 C-14.50572752 -3.21102299 -16.86118218 -3.41865587 -19.75 -3.625 C-20.73484375 -3.69976562 -21.7196875 -3.77453125 -22.734375 -3.8515625 C-23.48203125 -3.90054688 -24.2296875 -3.94953125 -25 -4 C-25 -4.33 -25 -4.66 -25 -5 C-15.53726419 -6.81201324 -7.92137452 -5.77320516 0 0 Z " fill="#060507" transform="translate(395,101)"/>
<path d="M0 0 C3.52421627 1.17473876 4.24239447 2.45336084 5.953125 5.64453125 C9.25577001 13.07548252 11.36478713 20.9010359 12 29 C13.05574219 28.87818359 13.05574219 28.87818359 14.1328125 28.75390625 C25.1495529 28.04918004 34.10180815 32.44003334 42.4375 39.4375 C47.35353478 44.1315203 51.97419928 48.88562262 55 55 C56.64302953 56.68997323 58.31471312 58.35216394 60 60 C61.13445563 61.28336986 62.25881393 62.57570925 63.375 63.875 C66.74766486 67.76822835 70.31962456 71.39963272 74 75 C79 80 79 80 80.37109375 81.4765625 C87.34757929 88.81840015 95.69289431 94.770283 103.7734375 100.8359375 C114.02416497 108.58958884 122.07128948 115.60617693 124 129 C124.20501019 133.01633605 124.18924578 136.9837839 124 141 C123.67 141 123.34 141 123 141 C122.34 137.7 121.68 134.4 121 131 C120.5875 131.928125 120.175 132.85625 119.75 133.8125 C117.99233077 137.01396895 117.04978501 138.15279452 114 140 C110.59740262 140.66392144 107.41289073 140.59378749 104 140 C101.125 137.8125 101.125 137.8125 99 135 C98.2575 134.2575 97.515 133.515 96.75 132.75 C94.32858715 128.94492267 93.78806019 125.48334211 94 121 C95.53617257 117.28084536 97.47973747 114.95570141 101 113 C103.32785471 112.63034067 105.66134634 112.29369139 108 112 C106.98421875 111.26136719 105.9684375 110.52273437 104.921875 109.76171875 C97.09873745 104.0174369 89.66984871 98.12600392 82.61328125 91.4609375 C80.35641735 89.33563966 78.05431596 87.31275364 75.6875 85.3125 C72.36628524 82.43731615 69.53679957 79.29984746 66.703125 75.94921875 C65.10910311 74.12486801 63.44594218 72.47644646 61.6875 70.8125 C57.45060028 66.66167725 53.98205909 61.91315891 50.4296875 57.18359375 C43.43283144 47.95648982 35.70889068 40.47688072 24 38 C21.67485652 37.75623496 19.38002986 37.56776038 17.04296875 37.50390625 C13.97748424 36.74779248 12.9250953 35.49986813 11 33 C9.84922827 30.31175414 9.04008559 27.56250593 8.25 24.75 C8.02957031 24.00492188 7.80914062 23.25984375 7.58203125 22.4921875 C7.04318906 20.66480965 6.52001096 18.8328255 6 17 C5.67 17 5.34 17 5 17 C4.55578722 29.24489605 4.701355 40.52640878 8.02734375 52.37109375 C13.13181688 71.41549349 10.24958772 92.74480382 1 110 C-6.17541887 121.03106289 -15.05692036 131.02846018 -27 137 C-33.47058824 137.35294118 -33.47058824 137.35294118 -37 135 C-37 134.34 -37 133.68 -37 133 C-41.92264554 137.30202547 -43.55970202 143.81384369 -44.4296875 150.109375 C-44.73128687 157.09938384 -43.72618325 161.78019316 -39 167 C-34.9592653 170.9811173 -30.72538107 174.65694769 -26.25 178.140625 C-24 180 -24 180 -23 182 C-22.73963695 185.99223339 -22.82777309 188.62098036 -25 192 C-35.06543306 199.96846784 -46.11692043 204.17557656 -58.875 204.1875 C-59.55691406 204.19974609 -60.23882812 204.21199219 -60.94140625 204.22460938 C-65.65631519 204.23808054 -69.52144019 203.47921101 -74 202 C-73.99476318 202.56920166 -73.98952637 203.13840332 -73.98413086 203.72485352 C-73.96317113 206.33739083 -73.95027996 208.94991037 -73.9375 211.5625 C-73.92912109 212.45775391 -73.92074219 213.35300781 -73.91210938 214.27539062 C-73.89370429 219.29997943 -74.13733602 224.04817291 -75 229 C-49.93067877 245.83225854 -23.66017079 251.41689086 6 254 C6 254.33 6 254.66 6 255 C-20.18890609 256.19040482 -46.26285066 251.09947824 -69 238 C-70.47205766 237.27700872 -71.94986771 236.56537693 -73.4375 235.875 C-77.68512641 233.80253173 -81.31816745 230.93763235 -85 228 C-84.06857728 222.27840328 -84.06857728 222.27840328 -83.4765625 219.875 C-82.80218379 215.80661695 -82.81570388 211.80449092 -82.8125 207.6875 C-82.80025391 206.87087891 -82.78800781 206.05425781 -82.77539062 205.21289062 C-82.76246504 199.80568635 -83.48790327 195.19372356 -85 190 C-82.03824877 190.61277612 -80.61941217 191.25372522 -78 193 C-68.23002102 196.42583679 -55.772099 196.36261242 -46 193 C-42.49699098 191.23075232 -39.22932573 189.22653511 -36 187 C-35.24460938 186.52433594 -34.48921875 186.04867187 -33.7109375 185.55859375 C-33.14632812 185.04425781 -32.58171875 184.52992188 -32 184 C-32 182.68 -32 181.36 -32 180 C-33.70221121 178.25612094 -33.70221121 178.25612094 -36 176.75 C-42.95942419 171.60988985 -50.72691125 165.74924726 -53 157 C-54.34067853 144.11715808 -51.25968035 134.92688926 -45.1328125 123.84179688 C-41.59922372 117.42005344 -38.76067206 110.78665215 -36 104 C-35.67 104 -35.34 104 -35 104 C-34.83892617 112.2147651 -34.83892617 112.2147651 -35.5 115.4375 C-36.31045286 119.59107092 -36.07372754 123.78114623 -36 128 C-31.08643243 127.53442873 -28.58481588 126.27806141 -24.875 123.0625 C-20.30550876 119.14070923 -20.30550876 119.14070923 -17.8203125 117.99609375 C-15.44909697 116.69854019 -15.08371557 115.44496806 -14 113 C-12.8945968 111.42357524 -11.76780561 109.86202463 -10.625 108.3125 C-0.50854697 93.86042424 3.42436483 75.08806895 0.62207031 57.64794922 C-0.24547487 53.09842389 -1.32193419 48.61237162 -2.46142578 44.12451172 C-4.10138683 37.65536347 -5.38856747 31.57254377 -5.375 24.875 C-5.37584595 23.79508789 -5.37584595 23.79508789 -5.37670898 22.69335938 C-5.25059412 16.39175097 -4.62325836 4.62325836 0 0 Z " fill="#080709" transform="translate(248,128)"/>
<path d="M0 0 C0.66 0 1.32 0 2 0 C2 0.66 2 1.32 2 2 C2.70382812 1.91878906 3.40765625 1.83757812 4.1328125 1.75390625 C15.1495529 1.04918004 24.10180815 5.44003334 32.4375 12.4375 C37.35353478 17.1315203 41.97419928 21.88562262 45 28 C46.64302953 29.68997323 48.31471312 31.35216394 50 33 C51.13445563 34.28336986 52.25881393 35.57570925 53.375 36.875 C56.74766486 40.76822835 60.31962456 44.39963272 64 48 C69 53 69 53 70.37109375 54.4765625 C77.34757929 61.81840015 85.69289431 67.770283 93.7734375 73.8359375 C104.02416497 81.58958884 112.07128948 88.60617693 114 102 C114.20501019 106.01633605 114.18924578 109.9837839 114 114 C113.67 114 113.34 114 113 114 C112.34 110.7 111.68 107.4 111 104 C110.5875 104.928125 110.175 105.85625 109.75 106.8125 C107.99233077 110.01396895 107.04978501 111.15279452 104 113 C100.59740262 113.66392144 97.41289073 113.59378749 94 113 C91.125 110.8125 91.125 110.8125 89 108 C88.2575 107.2575 87.515 106.515 86.75 105.75 C84.32858715 101.94492267 83.78806019 98.48334211 84 94 C85.53617257 90.28084536 87.47973747 87.95570141 91 86 C93.32785471 85.63034067 95.66134634 85.29369139 98 85 C96.98421875 84.26136719 95.9684375 83.52273437 94.921875 82.76171875 C87.09873745 77.0174369 79.66984871 71.12600392 72.61328125 64.4609375 C70.35641735 62.33563966 68.05431596 60.31275364 65.6875 58.3125 C62.36628524 55.43731615 59.53679957 52.29984746 56.703125 48.94921875 C55.10910311 47.12486801 53.44594218 45.47644646 51.6875 43.8125 C47.45060028 39.66167725 43.98205909 34.91315891 40.4296875 30.18359375 C33.43283144 20.95648982 25.70889068 13.47688072 14 11 C12.39799805 10.83204818 10.79355266 10.68584065 9.1875 10.5625 C6.14697583 10.2865711 5.11226817 10.07578101 2.5 8.3125 C0.69818603 5.53470347 0.29757725 3.2733498 0 0 Z " fill="#070608" transform="translate(258,155)"/>
<path d="M0 0 C5.1315115 5.5887749 6.36056192 10.6456488 6.28125 18.140625 C5.73332527 23.71119307 3.52617803 27.51295474 -0.4375 31.375 C-5.91686088 34.84971666 -10.56507647 35.83793662 -17 35 C-21.61099465 33.6967135 -25.0556554 31.48371958 -28 27.6875 C-31.3377502 21.63640865 -30.90926043 14.66306042 -30 8 C-28.38672729 3.54868428 -26.18580984 0.89658793 -22.4375 -1.9375 C-14.62212577 -5.34420159 -6.95881207 -5.11502426 0 0 Z " fill="#F9F6F9" transform="translate(297,199)"/>
<path d="M0 0 C-0.67660822 4.658614 -3.62219292 7.72835044 -6.42773438 11.35180664 C-8.21427231 13.66410721 -9.97642559 15.96512357 -11.61328125 18.38671875 C-14.68156625 22.92432332 -17.51897902 25.10536976 -22.39453125 27.5390625 C-25.58111078 29.32584023 -28.39170758 31.49165924 -31.25 33.75 C-37.64626452 38.79167191 -44.25774054 43.43159506 -51 48 C-50.36610765 51.49844386 -48.94822306 53.84086876 -46.9375 56.75 C-46.11572266 57.94882813 -46.11572266 57.94882813 -45.27734375 59.171875 C-44.85582031 59.77515625 -44.43429687 60.3784375 -44 61 C-44.66 62.32 -45.32 63.64 -46 65 C-46.66 65 -47.32 65 -48 65 C-49.29041914 63.55235738 -50.50767134 62.03910851 -51.6875 60.5 C-54.87898923 56.37327584 -58.21192988 52.52821216 -61.84765625 48.7890625 C-63 47 -63 47 -63.0703125 45.0625 C-61.42959233 41.90082025 -58.70016509 40.30638536 -55.8125 38.375 C-54.52195419 37.48333516 -53.23159447 36.59140092 -51.94140625 35.69921875 C-51.28156738 35.24853027 -50.62172852 34.7978418 -49.94189453 34.33349609 C-47.01611221 32.32436571 -44.13347179 30.25667162 -41.25 28.1875 C-40.68385986 27.78321777 -40.11771973 27.37893555 -39.53442383 26.96240234 C-34.67646736 23.49310396 -29.83783341 19.99727814 -25 16.5 C-23.47918536 15.40231785 -21.9583522 14.30466136 -20.4375 13.20703125 C-17.5574717 11.12791675 -14.68303886 9.04141045 -11.8125 6.94921875 C-10.54176668 6.02850778 -9.27093882 5.10792727 -8 4.1875 C-7.41863281 3.76082031 -6.83726562 3.33414063 -6.23828125 2.89453125 C-2.22673291 0 -2.22673291 0 0 0 Z " fill="#090709" transform="translate(376,117)"/>
<path d="M0 0 C6.29169448 -0.44940675 10.82840358 0.19865562 16 4 C21.1315115 9.5887749 22.36056192 14.6456488 22.28125 22.140625 C21.73332527 27.71119307 19.52617803 31.51295474 15.5625 35.375 C10.08313912 38.84971666 5.43492353 39.83793662 -1 39 C-6.46578191 37.45510994 -10.34904838 34.58632809 -13.16796875 29.63671875 C-14.95160827 23.98433998 -14.34298525 17.85361494 -14 12 C-13.67 12 -13.34 12 -13 12 C-12.97421875 12.73605469 -12.9484375 13.47210938 -12.921875 14.23046875 C-12.58427036 20.41621603 -12.58427036 20.41621603 -10.25 26.0625 C-5.74043879 29.94573327 -1.87969348 30.41997811 4 30 C6.97284955 29.44691171 8.39888415 28.82113211 10.1953125 26.3671875 C12.96697377 21.4247146 13.63386668 17.61424769 13 12 C10.88039578 5.87669891 7.17577053 3.67145817 1.625 0.75 C1.08875 0.5025 0.5525 0.255 0 0 Z " fill="#050305" transform="translate(281,195)"/>
<path d="M0 0 C4.08207405 0.7497687 5.4250556 2.42607963 8.0625 5.5625 C8.990625 6.490625 8.990625 6.490625 9.9375 7.4375 C11.65796196 10.68726147 10.90033859 13.08224738 10.0625 16.5625 C8.0625 18.5625 8.0625 18.5625 4.375 19.25 C1.33548072 19.19443292 0.29197698 18.76485306 -2.01953125 16.7265625 C-6.7950568 10.87143748 -6.7950568 10.87143748 -7.2265625 6.90625 C-6.9375 4.5625 -6.9375 4.5625 -5.3125 2.25 C-2.9375 0.5625 -2.9375 0.5625 0 0 Z " fill="#EFE5F2" transform="translate(349.9375,241.4375)"/>
<path d="M0 0 C5.34082361 -0.32044942 8.33706965 0.46579873 13 3 C17.77718135 4.37050285 22.59553454 4.07335693 27.515625 3.9921875 C29.42707775 3.97464116 31.33853647 3.95773586 33.25 3.94140625 C36.23129304 3.91075653 39.21227674 3.87559451 42.19335938 3.82861328 C54.84872978 3.64001181 66.62736411 4.2783038 79 7 C82.1406232 7.6877837 84.99250224 8.12219464 88.20703125 8.09765625 C88.95791016 8.09443359 89.70878906 8.09121094 90.48242188 8.08789062 C91.63581055 8.07532227 91.63581055 8.07532227 92.8125 8.0625 C93.60076172 8.05798828 94.38902344 8.05347656 95.20117188 8.04882812 C97.13414761 8.03711312 99.06708393 8.01917998 101 8 C100.67 8.66 100.34 9.32 100 10 C92.0707863 12.55781087 83.45497101 10.85860801 75.578125 9.03125 C62.68646583 6.32222416 49.87057906 6.46538106 36.75 6.5 C32.0777199 6.512106 27.4065572 6.49832024 22.734375 6.46875 C21.68739441 6.48006958 20.64041382 6.49138916 19.56170654 6.50305176 C12.21828123 6.45268799 5.38663022 5.38663022 0 0 Z " fill="#1B151F" transform="translate(259,275)"/>
<path d="M0 0 C0.89089791 2.9460844 1.02065903 5.13793056 0.5859375 8.17578125 C-2.25927502 30.77634479 1.3339254 54.91420091 8.56323242 76.42260742 C10.17139767 81.41397021 9.90894273 84.93909665 9 90 C8.67 90 8.34 90 8 90 C-6.84656566 26.08215491 -6.84656566 26.08215491 0 0 Z " fill="#251E2C" transform="translate(251,287)"/>
<path d="M0 0 C14.49581183 -0.61178104 25.17437231 0.82409802 37 10 C39.5625 12.375 39.5625 12.375 41 14 C40.34 15.32 39.68 16.64 39 18 C38.01 18 37.02 18 36 18 C34.87414616 16.6012119 33.7508671 15.20027385 32.640625 13.7890625 C23.48446232 3.8044851 12.94538369 1.57228068 0 1 C0 0.67 0 0.34 0 0 Z " fill="#0C080B" transform="translate(285,111)"/>
<path d="M0 0 C6.8784442 -0.44061208 11.53416688 -0.70315873 17 4 C18.010625 4.763125 19.02125 5.52625 20.0625 6.3125 C23.34788079 9.31827391 25.53701639 12.30552459 28 16 C25 18 25 18 23.015625 17.8515625 C20.49139021 16.78512222 19.45115296 15.51382824 17.75 13.375 C11.29462101 5.53804631 11.29462101 5.53804631 2.5 1.0625 C1.2625 1.0315625 1.2625 1.0315625 0 1 C0 0.67 0 0.34 0 0 Z " fill="#120C0F" transform="translate(244,100)"/>
<path d="M0 0 C1.31320927 3.93962782 0.2957351 5.20373011 -1.375 8.9375 C-2.88913563 12.35064931 -4.09064327 15.36257309 -5 19 C-7.97 19 -10.94 19 -14 19 C-14.33 19.99 -14.66 20.98 -15 22 C-20.28 22.33 -25.56 22.66 -31 23 C-27.98508882 20.99005921 -26.78549229 20.67216443 -23.32421875 20.23828125 C-13.55759563 19.14160072 -13.55759563 19.14160072 -5.44580078 14.31591797 C-3.02093801 10.14028959 -1.98388698 5.69062398 -1 1 C-0.67 0.67 -0.34 0.34 0 0 Z " fill="#A27993" transform="translate(233,113)"/>
<path d="M0 0 C0.33 0 0.66 0 1 0 C1.25523437 1.36318359 1.25523437 1.36318359 1.515625 2.75390625 C2.83303071 9.5861965 4.31272624 16.25390552 6.25 22.9375 C7.7869389 28.47979482 8.36682698 32.41878985 7 38 C6.67 38 6.34 38 6 38 C4.97043514 33.55573078 3.95573001 29.10841859 2.9543457 24.65771484 C2.61200699 23.14573236 2.26570285 21.63464181 1.9152832 20.12451172 C1.41079398 17.94724244 0.92089485 15.76710958 0.43359375 13.5859375 C0.27531601 12.91694427 0.11703827 12.24795105 -0.04603577 11.5586853 C-0.95672925 7.40070091 -0.96695549 4.14249339 0 0 Z " fill="#08070B" transform="translate(253,339)"/>
<path d="M0 0 C5.34082361 -0.32044942 8.33706965 0.46579873 13 3 C16.4441239 3.84751443 19.76259036 4.17156803 23.30078125 4.31640625 C24.27724609 4.35830078 25.25371094 4.40019531 26.25976562 4.44335938 C27.77086914 4.50233398 27.77086914 4.50233398 29.3125 4.5625 C30.85260742 4.62727539 30.85260742 4.62727539 32.42382812 4.69335938 C34.94909569 4.79906825 37.47445562 4.90116468 40 5 C40 5.33 40 5.66 40 6 C36.03490861 6.09990539 32.07031837 6.17194834 28.10424805 6.21972656 C26.10243949 6.24940781 24.10098081 6.30027058 22.09960938 6.3515625 C14.60807329 6.42704397 8.41400776 6.16551243 2 2 C1.34 1.34 0.68 0.68 0 0 Z " fill="#040305" transform="translate(259,275)"/>
<path d="M0 0 C0.33 0.66 0.66 1.32 1 2 C-2.3 2 -5.6 2 -9 2 C-9.66 3.32 -10.32 4.64 -11 6 C-11.78310547 6.90492188 -11.78310547 6.90492188 -12.58203125 7.828125 C-14.52306494 10.80116833 -14.51152406 13.23048127 -14.6875 16.75 C-14.75324219 17.92046875 -14.81898438 19.0909375 -14.88671875 20.296875 C-14.92410156 21.18890625 -14.96148437 22.0809375 -15 23 C-15.66 22.67 -16.32 22.34 -17 22 C-17.62289264 10.33806566 -17.62289264 10.33806566 -15.3125 5.375 C-10.29193995 0.21874914 -6.96911027 -0.35436154 0 0 Z " fill="#D7B3DC" transform="translate(285,196)"/>
<path d="M0 0 C0.66 0.33 1.32 0.66 2 1 C-10.94090056 14.35834897 -10.94090056 14.35834897 -18 16 C-19.34721283 16.63815344 -20.68747118 17.29325371 -22 18 C-18.46874219 12.84863214 -13.78988628 9.71935781 -8.75 6.1875 C-7.90953125 5.59001953 -7.0690625 4.99253906 -6.203125 4.37695312 C-4.13983467 2.91154806 -2.07213844 1.45285306 0 0 Z " fill="#D9B7D4" transform="translate(344,113)"/>
<path d="M0 0 C1.12921875 0.00386719 2.2584375 0.00773437 3.421875 0.01171875 C6.25 0.3125 6.25 0.3125 8.25 2.3125 C6.94675781 2.24289063 6.94675781 2.24289063 5.6171875 2.171875 C-3.25724007 1.88248241 -3.25724007 1.88248241 -10.75 6.3125 C-12.5134375 7.055 -12.5134375 7.055 -14.3125 7.8125 C-17.66157688 9.27391536 -20.01985615 10.91328267 -22.75 13.3125 C-23.41 12.9825 -24.07 12.6525 -24.75 12.3125 C-22.87952125 10.86878097 -21.00399303 9.43256561 -19.125 8 C-18.08085937 7.19949219 -17.03671875 6.39898437 -15.9609375 5.57421875 C-10.52959325 1.74849087 -6.70885952 -0.10047831 0 0 Z " fill="#DDACD5" transform="translate(374.75,96.6875)"/>
<path d="M0 0 C0 0.33 0 0.66 0 1 C-0.886875 1.20625 -1.77375 1.4125 -2.6875 1.625 C-5.91243528 2.96365238 -6.62539959 3.46488826 -8.625 6.0625 C-11 9 -11 9 -13.3125 9.875 C-13.869375 9.91625 -14.42625 9.9575 -15 10 C-12.37971695 1.66273576 -8.27013462 -0.70085887 0 0 Z " fill="#EFC0DF" transform="translate(250,101)"/>
<path d="M0 0 C1 2 1 2 0.375 4.375 C-1.25757762 7.4917391 -3.23720761 8.87477508 -6 11 C-6.33 11.99 -6.66 12.98 -7 14 C-7.66 14 -8.32 14 -9 14 C-9.33 15.65 -9.66 17.3 -10 19 C-10.99 18.34 -11.98 17.68 -13 17 C-12.34 16.67 -11.68 16.34 -11 16 C-10.08756216 14.37788829 -9.17802487 12.75405879 -8.28515625 11.12109375 C-5.88265855 7.15587719 -2.90802896 3.60236172 0 0 Z " fill="#E1BBE2" transform="translate(341,165)"/>
<path d="M0 0 C1 4 1 4 2 8 C-5.11389522 13.55580866 -5.11389522 13.55580866 -10 14 C-8.37660195 12.29115995 -6.70680947 10.62553283 -5 9 C-4.34 9 -3.68 9 -3 9 C-2.01 6.03 -1.02 3.06 0 0 Z " fill="#BFA4C9" transform="translate(370,270)"/>
<path d="M0 0 C2.475 0.99 2.475 0.99 5 2 C4.38125 2.0825 3.7625 2.165 3.125 2.25 C0.85214021 2.80581505 0.85214021 2.80581505 -0.1875 4.875 C-0.83464059 6.56752155 -1.42698864 8.28096593 -2 10 C-2.99 10.33 -3.98 10.66 -5 11 C-3.92289822 6.69159287 -2.96052484 3.36423277 0 0 Z " fill="#CAB1D8" transform="translate(257,275)"/>
<path d="M0 0 C1.175625 0.01353516 1.175625 0.01353516 2.375 0.02734375 C4.29180055 0.05071937 6.20844191 0.08658347 8.125 0.125 C8.125 0.455 8.125 0.785 8.125 1.125 C2.185 1.455 -3.755 1.785 -9.875 2.125 C-9.875 2.785 -9.875 3.445 -9.875 4.125 C-12.515 4.125 -15.155 4.125 -17.875 4.125 C-12.013803 0.21753533 -6.81829974 -0.15023372 0 0 Z " fill="#B888A8" transform="translate(289.875,111.875)"/>
<path d="M0 0 C2 3 2 3 1.625 5.6875 C1.41875 6.450625 1.2125 7.21375 1 8 C0.01 8.33 -0.98 8.66 -2 9 C-2.73323796 11.01508358 -2.73323796 11.01508358 -3 13 C-4.32 13 -5.64 13 -7 13 C-7 12.34 -7 11.68 -7 11 C-6.01 10.67 -5.02 10.34 -4 10 C-2.41927041 6.71694623 -1.15154357 3.45463072 0 0 Z " fill="#B7ABD4" transform="translate(261,370)"/>
<path d="M0 0 C0.33 0.66 0.66 1.32 1 2 C-0.89467269 7.12676141 -3.31614016 9.29376987 -8 12 C-6.49087042 7.01987239 -3.44338151 3.75740058 0 0 Z " fill="#EBC2EA" transform="translate(359,141)"/>
<path d="M0 0 C0 4.57142857 0 4.57142857 -1 7 C-2.89569244 8.84816812 -4.89048548 10.38420165 -7 12 C-7 8.19654123 -5.86213669 7.22298985 -3.5 4.3125 C-2.8503125 3.50425781 -2.200625 2.69601563 -1.53125 1.86328125 C-1.0259375 1.24839844 -0.520625 0.63351563 0 0 Z " fill="#E9BFE9" transform="translate(350,153)"/>
<path d="M0 0 C0.75 1.6875 0.75 1.6875 1 4 C-1.13381449 7.2769294 -2.25018012 8.75006004 -6 10 C-4.6302836 6.00499382 -2.74277578 3.19990508 0 0 Z " fill="#D2B7D8" transform="translate(133,186)"/>
<path d="M0 0 C-8.07744875 5.74031891 -8.07744875 5.74031891 -14 5 C-11.75043698 2.75043698 -9.93676737 1.99489035 -7 0.8125 C-6.113125 0.44769531 -5.22625 0.08289063 -4.3125 -0.29296875 C-2 -1 -2 -1 0 0 Z " fill="#B386A5" transform="translate(201,137)"/>
<path d="M0 0 C1.07817935 3.22730196 0.94858069 4.98126331 -0.3125 8.125 C-0.57675781 8.80820313 -0.84101563 9.49140625 -1.11328125 10.1953125 C-2 12 -2 12 -4 14 C-3.46148032 8.72250715 -2.22656164 4.74354436 0 0 Z " fill="#FBE3F7" transform="translate(232,118)"/>
<path d="M0 0 C0 0.66 0 1.32 0 2 C-0.99 2 -1.98 2 -3 2 C-3.66 3.32 -4.32 4.64 -5 6 C-6.65 6 -8.3 6 -10 6 C-7.35570758 3.077361 -4.105808 0 0 0 Z " fill="#E0B3D9" transform="translate(178,147)"/>
<path d="M0 0 C0.65234375 1.796875 0.65234375 1.796875 1 4 C-0.36489377 6.33370072 -2.1419038 8.00594554 -4 10 C-4.33 9.34 -4.66 8.68 -5 8 C-4.00390625 6.0546875 -4.00390625 6.0546875 -2.5625 3.875 C-2.08941406 3.15054688 -1.61632812 2.42609375 -1.12890625 1.6796875 C-0.75636719 1.12539062 -0.38382812 0.57109375 0 0 Z " fill="#BEA0CA" transform="translate(126,196)"/>
<path d="M0 0 C-4.30769231 3.07692308 -4.30769231 3.07692308 -7.8125 2.6875 C-8.534375 2.460625 -9.25625 2.23375 -10 2 C-9.67 1.34 -9.34 0.68 -9 0 C-5.65506316 -0.99444068 -3.31044803 -1.10348268 0 0 Z " fill="#F7D8F0" transform="translate(210,136)"/>
<path d="M0 0 C0.66 0.33 1.32 0.66 2 1 C-1.17320782 4.53586014 -3.16743695 6.58578031 -8 7 C-5.42215154 4.35247996 -3.08351902 2.05567935 0 0 Z " fill="#DBA7D4" transform="translate(344,113)"/>
<path d="M0 0 C0.99 0.33 1.98 0.66 3 1 C0.69 2.65 -1.62 4.3 -4 6 C-4 5.01 -4 4.02 -4 3 C-2.1875 1.25 -2.1875 1.25 0 0 Z " fill="#F3E5F4" transform="translate(223,249)"/>
</svg>
